<?xml version="1.0" encoding="utf-8"?>
<!-- Generator: Adobe Illustrator 25.2.1, SVG Export Plug-In . SVG Version: 6.00 Build 0)  -->
<svg version="1.1" xmlns="http://www.w3.org/2000/svg" xmlns:xlink="http://www.w3.org/1999/xlink" x="0px" y="0px"
	 viewBox="0 0 141.7 85" style="enable-background:new 0 0 141.7 85;" xml:space="preserve">
<style type="text/css">
	.st0{display:none;}
	.st1{display:inline;fill:none;stroke:#000000;stroke-width:0.5;stroke-miterlimit:10;}
	.st2{fill:none;stroke:#000000;stroke-width:0.5;stroke-miterlimit:10;}
	.st3{fill:none;stroke:#FF0000;stroke-width:0.5;stroke-miterlimit:10;}
	.st4{fill:none;stroke:#0000FF;stroke-width:0.5;stroke-miterlimit:10;}
</style>
<g id="Layer_1" class="st0">
	<polygon class="st1" points="42.7,36.5 36.1,43.2 40.1,43.2 46.7,36.5 	"/>
	<polygon class="st1" points="38.7,36.5 32.1,43.2 36.1,43.2 42.7,36.5 	"/>
	<polygon class="st1" points="34.7,36.5 28.1,43.2 32.1,43.2 38.7,36.5 	"/>
	<polygon class="st1" points="46.7,36.5 40.1,43.2 44.1,43.2 50.7,36.5 	"/>
	<polygon class="st1" points="30.7,36.5 24.2,43.2 28.1,43.2 34.7,36.5 	"/>
	<polygon class="st1" points="54.7,36.5 48.1,43.2 57.3,43.2 57.3,36.5 	"/>
	<polygon class="st1" points="50.7,36.5 44.1,43.2 48.1,43.2 54.7,36.5 	"/>
	<polygon class="st1" points="2.7,36.5 2.7,40.6 6.7,36.5 	"/>
	<polygon class="st1" points="10.7,36.5 4.2,43.2 8.2,43.2 14.7,36.5 	"/>
	<polygon class="st1" points="26.7,36.5 20.2,43.2 24.2,43.2 30.7,36.5 	"/>
	<rect x="57.3" y="36.5" class="st1" width="2.8" height="6.6"/>
	<polygon class="st1" points="6.7,36.5 2.7,40.6 2.7,43.2 4.2,43.2 10.7,36.5 	"/>
	<polygon class="st1" points="22.7,36.5 16.2,43.2 20.2,43.2 26.7,36.5 	"/>
	<polygon class="st1" points="14.7,36.5 8.2,43.2 12.2,43.2 18.7,36.5 	"/>
	<polygon class="st1" points="18.7,36.5 12.2,43.2 16.2,43.2 22.7,36.5 	"/>
	<polygon class="st1" points="82.2,36.5 75.7,43.2 79.7,43.2 86.2,36.5 	"/>
	<polygon class="st1" points="94.2,36.5 87.7,43.2 91.7,43.2 98.2,36.5 	"/>
	<polygon class="st1" points="106.2,36.5 99.7,43.2 103.7,43.2 110.2,36.5 	"/>
	<polygon class="st1" points="98.2,36.5 91.7,43.2 95.7,43.2 102.2,36.5 	"/>
	<polygon class="st1" points="102.2,36.5 95.7,43.2 99.7,43.2 106.2,36.5 	"/>
	<polygon class="st1" points="110.2,36.5 103.7,43.2 107.7,43.2 114.2,36.5 	"/>
	<polygon class="st1" points="119.8,36.5 118.2,36.5 111.6,43.2 115.6,43.2 119.8,39 	"/>
	<polygon class="st1" points="114.2,36.5 107.7,43.2 111.6,43.2 118.2,36.5 	"/>
	<polygon class="st1" points="119.8,39 115.6,43.2 119.8,43.2 	"/>
	<polygon class="st1" points="65.5,36.5 65.5,43.2 67.7,43.2 74.3,36.5 	"/>
	<polygon class="st1" points="74.3,36.5 67.7,43.2 71.7,43.2 78.3,36.5 	"/>
	<rect x="63" y="36.5" class="st1" width="2.6" height="6.6"/>
	<polygon class="st1" points="86.2,36.5 79.7,43.2 83.7,43.2 90.2,36.5 	"/>
	<polygon class="st1" points="90.2,36.5 83.7,43.2 87.7,43.2 94.2,36.5 	"/>
	<polygon class="st1" points="78.3,36.5 71.7,43.2 75.7,43.2 82.2,36.5 	"/>
	<rect x="60.1" y="36.5" class="st1" width="2.8" height="6.6"/>
</g>
<g id="Layer_2">
	<line class="st2" x1="46.7" y1="36.5" x2="42.7" y2="36.5"/>
	<line class="st3" x1="40.1" y1="43.2" x2="46.7" y2="36.5"/>
	<line class="st2" x1="36.1" y1="43.2" x2="40.1" y2="43.2"/>
	<line class="st3" x1="42.7" y1="36.5" x2="36.1" y2="43.2"/>
	<line class="st2" x1="42.7" y1="36.5" x2="38.7" y2="36.5"/>
	<line class="st3" x1="36.1" y1="43.2" x2="42.7" y2="36.5"/>
	<line class="st2" x1="32.1" y1="43.2" x2="36.1" y2="43.2"/>
	<line class="st3" x1="38.7" y1="36.5" x2="32.1" y2="43.2"/>
	<line class="st2" x1="38.7" y1="36.5" x2="34.7" y2="36.5"/>
	<line class="st3" x1="32.1" y1="43.2" x2="38.7" y2="36.5"/>
	<line class="st2" x1="28.1" y1="43.2" x2="32.1" y2="43.2"/>
	<line class="st3" x1="34.7" y1="36.5" x2="28.1" y2="43.2"/>
	<line class="st2" x1="50.7" y1="36.5" x2="46.7" y2="36.5"/>
	<line class="st3" x1="44.1" y1="43.2" x2="50.7" y2="36.5"/>
	<line class="st2" x1="40.1" y1="43.2" x2="44.1" y2="43.2"/>
	<line class="st3" x1="46.7" y1="36.5" x2="40.1" y2="43.2"/>
	<line class="st2" x1="34.7" y1="36.5" x2="30.7" y2="36.5"/>
	<line class="st3" x1="28.1" y1="43.2" x2="34.7" y2="36.5"/>
	<line class="st2" x1="24.2" y1="43.2" x2="28.1" y2="43.2"/>
	<line class="st3" x1="30.7" y1="36.5" x2="24.2" y2="43.2"/>
	<line class="st2" x1="57.3" y1="36.5" x2="54.7" y2="36.5"/>
	<line class="st3" x1="57.3" y1="43.2" x2="57.3" y2="36.5"/>
	<line class="st2" x1="48.1" y1="43.2" x2="57.3" y2="43.2"/>
	<line class="st3" x1="54.7" y1="36.5" x2="48.1" y2="43.2"/>
	<line class="st2" x1="54.7" y1="36.5" x2="50.7" y2="36.5"/>
	<line class="st3" x1="48.1" y1="43.2" x2="54.7" y2="36.5"/>
	<line class="st2" x1="44.1" y1="43.2" x2="48.1" y2="43.2"/>
	<line class="st3" x1="50.7" y1="36.5" x2="44.1" y2="43.2"/>
	<line class="st2" x1="2.7" y1="36.5" x2="2.7" y2="40.6"/>
	<line class="st2" x1="6.7" y1="36.5" x2="2.7" y2="36.5"/>
	<line class="st3" x1="2.7" y1="40.6" x2="6.7" y2="36.5"/>
	<line class="st2" x1="14.7" y1="36.5" x2="10.7" y2="36.5"/>
	<line class="st3" x1="8.2" y1="43.2" x2="14.7" y2="36.5"/>
	<line class="st2" x1="4.2" y1="43.2" x2="8.2" y2="43.2"/>
	<line class="st3" x1="10.7" y1="36.5" x2="4.2" y2="43.2"/>
	<line class="st2" x1="30.7" y1="36.5" x2="26.7" y2="36.5"/>
	<line class="st3" x1="24.2" y1="43.2" x2="30.7" y2="36.5"/>
	<line class="st2" x1="20.2" y1="43.2" x2="24.2" y2="43.2"/>
	<line class="st3" x1="26.7" y1="36.5" x2="20.2" y2="43.2"/>
	<line class="st2" x1="60.1" y1="36.5" x2="57.3" y2="36.5"/>
	<line class="st3" x1="60.1" y1="43.2" x2="60.1" y2="36.5"/>
	<line class="st2" x1="57.3" y1="43.2" x2="60.1" y2="43.2"/>
	<line class="st4" x1="57.3" y1="36.5" x2="57.3" y2="43.2"/>
	<line class="st2" x1="10.7" y1="36.5" x2="6.7" y2="36.5"/>
	<line class="st3" x1="4.2" y1="43.2" x2="10.7" y2="36.5"/>
	<line class="st2" x1="2.7" y1="43.2" x2="4.2" y2="43.2"/>
	<line class="st2" x1="2.7" y1="40.6" x2="2.7" y2="43.2"/>
	<line class="st3" x1="6.7" y1="36.5" x2="2.7" y2="40.6"/>
	<line class="st2" x1="26.7" y1="36.5" x2="22.7" y2="36.5"/>
	<line class="st3" x1="20.2" y1="43.2" x2="26.7" y2="36.5"/>
	<line class="st2" x1="16.2" y1="43.2" x2="20.2" y2="43.2"/>
	<line class="st3" x1="22.7" y1="36.5" x2="16.2" y2="43.2"/>
	<line class="st2" x1="18.7" y1="36.5" x2="14.7" y2="36.5"/>
	<line class="st3" x1="12.2" y1="43.2" x2="18.7" y2="36.5"/>
	<line class="st2" x1="8.2" y1="43.2" x2="12.2" y2="43.2"/>
	<line class="st3" x1="14.7" y1="36.5" x2="8.2" y2="43.2"/>
	<line class="st2" x1="22.7" y1="36.5" x2="18.7" y2="36.5"/>
	<line class="st3" x1="16.2" y1="43.2" x2="22.7" y2="36.5"/>
	<line class="st2" x1="12.2" y1="43.2" x2="16.2" y2="43.2"/>
	<line class="st3" x1="18.7" y1="36.5" x2="12.2" y2="43.2"/>
	<line class="st2" x1="86.2" y1="36.5" x2="82.2" y2="36.5"/>
	<line class="st4" x1="79.7" y1="43.2" x2="86.2" y2="36.5"/>
	<line class="st2" x1="75.7" y1="43.2" x2="79.7" y2="43.2"/>
	<line class="st4" x1="82.2" y1="36.5" x2="75.7" y2="43.2"/>
	<line class="st2" x1="98.2" y1="36.5" x2="94.2" y2="36.5"/>
	<line class="st4" x1="91.7" y1="43.2" x2="98.2" y2="36.5"/>
	<line class="st2" x1="87.7" y1="43.2" x2="91.7" y2="43.2"/>
	<line class="st4" x1="94.2" y1="36.5" x2="87.7" y2="43.2"/>
	<line class="st2" x1="110.2" y1="36.5" x2="106.2" y2="36.5"/>
	<line class="st4" x1="103.7" y1="43.2" x2="110.2" y2="36.5"/>
	<line class="st2" x1="99.7" y1="43.2" x2="103.7" y2="43.2"/>
	<line class="st4" x1="106.2" y1="36.5" x2="99.7" y2="43.2"/>
	<line class="st2" x1="102.2" y1="36.5" x2="98.2" y2="36.5"/>
	<line class="st4" x1="95.7" y1="43.2" x2="102.2" y2="36.5"/>
	<line class="st2" x1="91.7" y1="43.2" x2="95.7" y2="43.2"/>
	<line class="st4" x1="98.2" y1="36.5" x2="91.7" y2="43.2"/>
	<line class="st2" x1="106.2" y1="36.5" x2="102.2" y2="36.5"/>
	<line class="st4" x1="99.7" y1="43.2" x2="106.2" y2="36.5"/>
	<line class="st2" x1="95.7" y1="43.2" x2="99.7" y2="43.2"/>
	<line class="st4" x1="102.2" y1="36.5" x2="95.7" y2="43.2"/>
	<line class="st2" x1="114.2" y1="36.5" x2="110.2" y2="36.5"/>
	<line class="st4" x1="107.7" y1="43.2" x2="114.2" y2="36.5"/>
	<line class="st2" x1="103.7" y1="43.2" x2="107.7" y2="43.2"/>
	<line class="st4" x1="110.2" y1="36.5" x2="103.7" y2="43.2"/>
	<line class="st2" x1="119.8" y1="39" x2="119.8" y2="36.5"/>
	<line class="st4" x1="115.6" y1="43.2" x2="119.8" y2="39"/>
	<line class="st2" x1="111.6" y1="43.2" x2="115.6" y2="43.2"/>
	<line class="st4" x1="118.2" y1="36.5" x2="111.6" y2="43.2"/>
	<line class="st2" x1="119.8" y1="36.5" x2="118.2" y2="36.5"/>
	<line class="st2" x1="118.2" y1="36.5" x2="114.2" y2="36.5"/>
	<line class="st4" x1="111.6" y1="43.2" x2="118.2" y2="36.5"/>
	<line class="st2" x1="107.7" y1="43.2" x2="111.6" y2="43.2"/>
	<line class="st4" x1="114.2" y1="36.5" x2="107.7" y2="43.2"/>
	<line class="st2" x1="119.8" y1="43.2" x2="119.8" y2="39"/>
	<line class="st2" x1="115.6" y1="43.2" x2="119.8" y2="43.2"/>
	<line class="st4" x1="119.8" y1="39" x2="115.6" y2="43.2"/>
	<line class="st2" x1="74.3" y1="36.5" x2="65.5" y2="36.5"/>
	<line class="st4" x1="67.7" y1="43.2" x2="74.3" y2="36.5"/>
	<line class="st2" x1="65.5" y1="43.2" x2="67.7" y2="43.2"/>
	<line class="st4" x1="65.5" y1="36.5" x2="65.5" y2="43.2"/>
	<line class="st2" x1="78.3" y1="36.5" x2="74.3" y2="36.5"/>
	<line class="st4" x1="71.7" y1="43.2" x2="78.3" y2="36.5"/>
	<line class="st2" x1="67.7" y1="43.2" x2="71.7" y2="43.2"/>
	<line class="st4" x1="74.3" y1="36.5" x2="67.7" y2="43.2"/>
	<line class="st2" x1="65.5" y1="36.5" x2="63" y2="36.5"/>
	<line class="st3" x1="65.5" y1="43.2" x2="65.5" y2="36.5"/>
	<line class="st2" x1="63" y1="43.2" x2="65.5" y2="43.2"/>
	<line class="st4" x1="63" y1="36.5" x2="63" y2="43.2"/>
	<line class="st2" x1="90.2" y1="36.5" x2="86.2" y2="36.5"/>
	<line class="st4" x1="83.7" y1="43.2" x2="90.2" y2="36.5"/>
	<line class="st2" x1="79.7" y1="43.2" x2="83.7" y2="43.2"/>
	<line class="st4" x1="86.2" y1="36.5" x2="79.7" y2="43.2"/>
	<line class="st2" x1="94.2" y1="36.5" x2="90.2" y2="36.5"/>
	<line class="st4" x1="87.7" y1="43.2" x2="94.2" y2="36.5"/>
	<line class="st2" x1="83.7" y1="43.2" x2="87.7" y2="43.2"/>
	<line class="st4" x1="90.2" y1="36.5" x2="83.7" y2="43.2"/>
	<line class="st2" x1="82.2" y1="36.5" x2="78.3" y2="36.5"/>
	<line class="st4" x1="75.7" y1="43.2" x2="82.2" y2="36.5"/>
	<line class="st2" x1="71.7" y1="43.2" x2="75.7" y2="43.2"/>
	<line class="st4" x1="78.3" y1="36.5" x2="71.7" y2="43.2"/>
	<line class="st2" x1="63" y1="36.5" x2="60.1" y2="36.5"/>
	<line class="st3" x1="63" y1="43.2" x2="63" y2="36.5"/>
	<line class="st2" x1="60.1" y1="43.2" x2="63" y2="43.2"/>
	<line class="st4" x1="60.1" y1="36.5" x2="60.1" y2="43.2"/>
</g>
</svg>
