<?xml version="1.0" encoding="utf-8"?>
<!-- Generator: Adobe Illustrator 25.2.1, SVG Export Plug-In . SVG Version: 6.00 Build 0)  -->
<svg version="1.1" xmlns="http://www.w3.org/2000/svg" xmlns:xlink="http://www.w3.org/1999/xlink" x="0px" y="0px"
	 viewBox="0 0 141.7 85" style="enable-background:new 0 0 141.7 85;" xml:space="preserve">
<style type="text/css">
	.st0{fill:none;stroke:#000000;stroke-width:0.25;stroke-linecap:round;stroke-linejoin:round;}
	.st1{fill:none;stroke:#FF0000;stroke-width:0.25;stroke-linecap:round;stroke-linejoin:round;}
	.st2{fill:none;stroke:#0000FF;stroke-width:0.25;stroke-linecap:round;stroke-linejoin:round;}
</style>
<g id="Layer_1">
	<polygon class="st0" points="28.8,27.7 30.2,27.3 31.7,27.1 33.2,27.3 35.4,16.3 31.7,16.3 28,17 24.4,17.4 21.2,19.1 27.5,28.4 	
		"/>
	<polygon class="st0" points="35.3,28.1 40.6,18.2 39,17.4 34.6,27.7 	"/>
	<polygon class="st0" points="33.9,27.5 37.4,16.9 35.4,16.3 33.2,27.3 	"/>
	<polygon class="st0" points="26.4,29.3 18.4,21.4 17.1,23 26,29.8 	"/>
	<polygon class="st0" points="26,29.8 17.1,23 16.1,24.2 25.5,30.4 	"/>
	<polygon class="st0" points="25.5,30.4 16.1,24.2 15.1,26 25.1,31 	"/>
	<polygon class="st0" points="26.8,29 19.9,20.2 18.4,21.4 26.4,29.3 	"/>
	<polygon class="st0" points="27.5,28.4 21.2,19.1 19.9,20.2 26.8,29 	"/>
	<polygon class="st0" points="39.2,34.6 50.4,34.6 50.2,32.9 39.1,33.8 	"/>
	<polygon class="st0" points="25.1,31 15.1,26 14.4,27.3 24.8,31.7 	"/>
	<polygon class="st0" points="39,36.1 38.8,36.7 49.4,40.4 50,38.4 50.4,34.6 39.2,34.6 	"/>
	<polygon class="st0" points="38.6,37.5 48.9,41.9 49.4,40.4 38.8,36.7 	"/>
	<polygon class="st0" points="35.9,28.4 36.4,28.9 43.4,20.2 42.1,19.1 40.6,18.2 35.3,28.1 	"/>
	<polygon class="st0" points="39.1,33.8 50.2,32.9 50,30.9 39,33.1 	"/>
	<polygon class="st0" points="37,29.3 44.9,21.4 43.4,20.2 36.4,28.9 	"/>
	<polygon class="st0" points="38.6,31.7 39,33.1 50,30.9 48.9,27.3 48.1,25.8 38.2,31 	"/>
	<polygon class="st0" points="37.9,30.4 47.2,24.2 44.9,21.4 37,29.3 	"/>
	<polygon class="st0" points="38.2,31 48.1,25.8 47.2,24.2 37.9,30.4 	"/>
	<polygon class="st0" points="30.2,42 28.8,41.5 28.1,41.2 23,51.1 24.4,51.9 27.9,53 31.7,53.4 31.7,42.1 	"/>
	<polygon class="st0" points="32.3,42 33.6,53.2 35.4,53 33.2,42 	"/>
	<polygon class="st0" points="33.2,42 35.4,53 37.2,52.4 33.9,41.7 	"/>
	<polygon class="st0" points="24.8,31.7 14.4,27.3 13.9,29 24.6,32.4 	"/>
	<polygon class="st0" points="31.7,42.1 31.7,53.4 33.6,53.2 32.3,42 	"/>
	<polygon class="st0" points="33.9,41.7 37.2,52.4 39,51.9 34.6,41.5 	"/>
	<polygon class="st0" points="38.6,37.5 38.3,38.1 48,43.6 48.9,41.9 	"/>
	<polygon class="st0" points="37.9,38.8 47.2,45.1 48,43.6 38.3,38.1 	"/>
	<polygon class="st0" points="34.6,41.5 39,51.9 40.5,51.1 35.2,41.2 	"/>
	<polygon class="st0" points="37,39.9 35.9,40.8 35.2,41.2 40.5,51.1 42.1,50.2 44.9,47.9 46.2,46.4 37.4,39.4 	"/>
	<polygon class="st0" points="37.4,39.4 46.2,46.4 47.2,45.1 37.9,38.8 	"/>
	<polygon class="st0" points="24.8,37.5 14.4,41.9 15.4,43.7 25.1,38.1 	"/>
	<polygon class="st0" points="24.3,36.1 24.2,34.6 24.3,33.1 13.3,30.9 12.9,34.6 13.3,38.4 14.4,41.9 24.8,37.5 	"/>
	<polygon class="st0" points="24.6,32.4 13.9,29 13.3,30.9 24.3,33.1 	"/>
	<polygon class="st0" points="25.1,38.1 15.4,43.7 16.1,45.1 25.5,38.8 	"/>
	<polygon class="st0" points="26.4,39.9 18.4,47.9 20,49.1 26.8,40.3 	"/>
	<polygon class="st0" points="27.5,40.8 21.2,50.2 23,51.1 28.1,41.2 	"/>
	<polygon class="st0" points="26.8,40.3 20,49.1 21.2,50.2 27.5,40.8 	"/>
	<polygon class="st0" points="25.5,38.8 16.1,45.1 17.3,46.6 25.9,39.4 	"/>
	<polygon class="st0" points="25.9,39.4 17.3,46.6 18.4,47.9 26.4,39.9 	"/>
	<polygon class="st0" points="35.9,9 34.7,8.6 21.9,10.5 21.1,11.2 20.2,12.4 37.2,9.9 	"/>
	<polygon class="st0" points="32.6,8 29.3,8 24.8,8.8 21.9,10.5 34.7,8.6 	"/>
	<polygon class="st0" points="31.7,16.3 39.3,14.4 40.4,13.4 39.7,12.6 18.5,16.6 18.9,17.8 24.4,17.4 28,17 	"/>
	<polygon class="st0" points="38.1,10.6 37.2,9.9 20.2,12.4 19.2,13.4 18.8,14.6 38.9,11.7 	"/>
	<polygon class="st0" points="38.9,11.7 18.8,14.6 18.5,16.6 39.7,12.6 	"/>
	<polygon class="st0" points="4.3,34.6 5,39.4 6.3,41.9 5.3,32.7 	"/>
	<polygon class="st0" points="6.2,30.9 5.3,32.7 6.3,41.9 6.6,42.4 8.3,43.1 7.4,30.4 	"/>
	<polygon class="st0" points="7.4,30.4 8.3,43.1 9.6,43.6 10,43.7 9.1,29.7 	"/>
	<polygon class="st0" points="9.9,29.3 9.1,29.7 10,43.7 11.8,43.9 11,29.1 	"/>
	<polygon class="st0" points="13.3,38.4 12.9,34.6 12.2,28.9 11,29.1 11.8,43.9 13.3,44 	"/>
	<polygon class="st0" points="18.9,55.3 19.4,56.7 29.9,60 31.3,59.2 31.8,58.8 18.8,54.4 	"/>
	<polygon class="st0" points="19.7,57.6 21.9,59.7 24.8,60.5 29,60.5 29.9,60 19.4,56.7 	"/>
	<polygon class="st0" points="34.3,55.6 27.9,53 24.4,51.9 19.3,51.1 19.1,52.1 33.5,57.2 	"/>
	<polygon class="st0" points="33.5,57.2 19.1,52.1 18.7,53.5 18.8,54.4 31.8,58.8 33.2,57.7 	"/>
	<polygon class="st0" points="49.8,46.9 40.1,54.5 41,55.2 42.1,55.5 50.5,48.9 50.4,48.5 	"/>
	<polygon class="st0" points="46.7,56 48.9,54.9 50.4,53.5 50.6,51.5 44.8,56 	"/>
	<polygon class="st0" points="49.4,46 44.9,47.9 42.1,50.2 39.1,53.7 40.1,54.5 49.8,46.9 	"/>
	<polygon class="st0" points="44,56 44.8,56 50.6,51.5 50.7,51.1 50.5,48.9 42.1,55.5 	"/>
	<polygon class="st0" points="56,33.7 55,32.9 54.3,41.6 55.6,40.6 57,38.8 57.3,36.1 	"/>
	<polygon class="st0" points="54.3,32.3 52.6,31.6 51.7,42.7 53.3,42.3 54.3,41.6 55,32.9 	"/>
	<polygon class="st0" points="51.8,31.2 50.4,34.6 50,38.4 50,43 51.7,42.7 52.6,31.6 	"/>
	<polygon class="st0" points="51.6,20.7 50.4,18.7 48.4,17.5 46.2,17.3 52,23 	"/>
	<polygon class="st0" points="43.6,17.8 51.2,25.7 52.1,24 52,23 46.2,17.3 45.5,17.2 	"/>
	<polygon class="st0" points="43,18 44.9,21.4 47.2,24.2 50.8,26.5 51.2,25.7 43.6,17.8 	"/>
</g>
<g id="Layer_2">
	<line class="st0" x1="27.5" y1="28.4" x2="28.8" y2="27.7"/>
	<line class="st1" x1="21.2" y1="19.1" x2="27.5" y2="28.4"/>
	<line class="st0" x1="24.4" y1="17.4" x2="21.2" y2="19.1"/>
	<line class="st0" x1="28" y1="17" x2="24.4" y2="17.4"/>
	<line class="st0" x1="31.7" y1="16.3" x2="28" y2="17"/>
	<line class="st0" x1="35.4" y1="16.3" x2="31.7" y2="16.3"/>
	<line class="st0" x1="33.2" y1="27.3" x2="35.4" y2="16.3"/>
	<line class="st0" x1="31.7" y1="27.1" x2="33.2" y2="27.3"/>
	<line class="st0" x1="30.2" y1="27.3" x2="31.7" y2="27.1"/>
	<line class="st0" x1="28.8" y1="27.7" x2="30.2" y2="27.3"/>
	<line class="st0" x1="34.6" y1="27.7" x2="35.3" y2="28.1"/>
	<line class="st0" x1="39" y1="17.4" x2="34.6" y2="27.7"/>
	<line class="st0" x1="40.6" y1="18.2" x2="39" y2="17.4"/>
	<line class="st0" x1="35.3" y1="28.1" x2="40.6" y2="18.2"/>
	<line class="st0" x1="33.2" y1="27.3" x2="33.9" y2="27.5"/>
	<line class="st1" x1="35.4" y1="16.3" x2="33.2" y2="27.3"/>
	<line class="st0" x1="37.4" y1="16.9" x2="35.4" y2="16.3"/>
	<line class="st0" x1="33.9" y1="27.5" x2="37.4" y2="16.9"/>
	<line class="st0" x1="26" y1="29.8" x2="26.4" y2="29.3"/>
	<line class="st1" x1="17.1" y1="23" x2="26" y2="29.8"/>
	<line class="st0" x1="18.4" y1="21.4" x2="17.1" y2="23"/>
	<line class="st1" x1="26.4" y1="29.3" x2="18.4" y2="21.4"/>
	<line class="st0" x1="25.5" y1="30.4" x2="26" y2="29.8"/>
	<line class="st1" x1="16.1" y1="24.2" x2="25.5" y2="30.4"/>
	<line class="st0" x1="17.1" y1="23" x2="16.1" y2="24.2"/>
	<line class="st1" x1="26" y1="29.8" x2="17.1" y2="23"/>
	<line class="st0" x1="25.1" y1="31" x2="25.5" y2="30.4"/>
	<line class="st1" x1="15.1" y1="26" x2="25.1" y2="31"/>
	<line class="st0" x1="16.1" y1="24.2" x2="15.1" y2="26"/>
	<line class="st1" x1="25.5" y1="30.4" x2="16.1" y2="24.2"/>
	<line class="st0" x1="26.4" y1="29.3" x2="26.8" y2="29"/>
	<line class="st1" x1="18.4" y1="21.4" x2="26.4" y2="29.3"/>
	<line class="st0" x1="19.9" y1="20.2" x2="18.4" y2="21.4"/>
	<line class="st1" x1="26.8" y1="29" x2="19.9" y2="20.2"/>
	<line class="st0" x1="26.8" y1="29" x2="27.5" y2="28.4"/>
	<line class="st1" x1="19.9" y1="20.2" x2="26.8" y2="29"/>
	<line class="st0" x1="21.2" y1="19.1" x2="19.9" y2="20.2"/>
	<line class="st1" x1="27.5" y1="28.4" x2="21.2" y2="19.1"/>
	<line class="st0" x1="39.1" y1="33.8" x2="39.2" y2="34.6"/>
	<line class="st1" x1="50.2" y1="32.9" x2="39.1" y2="33.8"/>
	<line class="st0" x1="50.4" y1="34.6" x2="50.2" y2="32.9"/>
	<line class="st1" x1="39.2" y1="34.6" x2="50.4" y2="34.6"/>
	<line class="st0" x1="24.8" y1="31.7" x2="25.1" y2="31"/>
	<line class="st1" x1="14.4" y1="27.3" x2="24.8" y2="31.7"/>
	<line class="st0" x1="15.1" y1="26" x2="14.4" y2="27.3"/>
	<line class="st1" x1="25.1" y1="31" x2="15.1" y2="26"/>
	<line class="st0" x1="39.2" y1="34.6" x2="39" y2="36.1"/>
	<line class="st1" x1="50.4" y1="34.6" x2="39.2" y2="34.6"/>
	<line class="st0" x1="50" y1="38.4" x2="50.4" y2="34.6"/>
	<line class="st0" x1="49.4" y1="40.4" x2="50" y2="38.4"/>
	<line class="st1" x1="38.8" y1="36.7" x2="49.4" y2="40.4"/>
	<line class="st0" x1="39" y1="36.1" x2="38.8" y2="36.7"/>
	<line class="st0" x1="38.8" y1="36.7" x2="38.6" y2="37.5"/>
	<line class="st1" x1="49.4" y1="40.4" x2="38.8" y2="36.7"/>
	<line class="st0" x1="48.9" y1="41.9" x2="49.4" y2="40.4"/>
	<line class="st1" x1="38.6" y1="37.5" x2="48.9" y2="41.9"/>
	<line class="st0" x1="35.3" y1="28.1" x2="35.9" y2="28.4"/>
	<line class="st1" x1="40.6" y1="18.2" x2="35.3" y2="28.1"/>
	<line class="st0" x1="42.1" y1="19.1" x2="40.6" y2="18.2"/>
	<line class="st0" x1="43.4" y1="20.2" x2="42.1" y2="19.1"/>
	<line class="st1" x1="36.4" y1="28.9" x2="43.4" y2="20.2"/>
	<line class="st0" x1="35.9" y1="28.4" x2="36.4" y2="28.9"/>
	<line class="st0" x1="39" y1="33.1" x2="39.1" y2="33.8"/>
	<line class="st1" x1="50" y1="30.9" x2="39" y2="33.1"/>
	<line class="st0" x1="50.2" y1="32.9" x2="50" y2="30.9"/>
	<line class="st1" x1="39.1" y1="33.8" x2="50.2" y2="32.9"/>
	<line class="st0" x1="36.4" y1="28.9" x2="37" y2="29.3"/>
	<line class="st1" x1="43.4" y1="20.2" x2="36.4" y2="28.9"/>
	<line class="st0" x1="44.9" y1="21.4" x2="43.4" y2="20.2"/>
	<line class="st1" x1="37" y1="29.3" x2="44.9" y2="21.4"/>
	<line class="st0" x1="38.2" y1="31" x2="38.6" y2="31.7"/>
	<line class="st1" x1="48.1" y1="25.8" x2="38.2" y2="31"/>
	<line class="st0" x1="48.9" y1="27.3" x2="48.1" y2="25.8"/>
	<line class="st0" x1="50" y1="30.9" x2="48.9" y2="27.3"/>
	<line class="st1" x1="39" y1="33.1" x2="50" y2="30.9"/>
	<line class="st0" x1="38.6" y1="31.7" x2="39" y2="33.1"/>
	<line class="st0" x1="37" y1="29.3" x2="37.9" y2="30.4"/>
	<line class="st1" x1="44.9" y1="21.4" x2="37" y2="29.3"/>
	<line class="st0" x1="47.2" y1="24.2" x2="44.9" y2="21.4"/>
	<line class="st1" x1="37.9" y1="30.4" x2="47.2" y2="24.2"/>
	<line class="st0" x1="37.9" y1="30.4" x2="38.2" y2="31"/>
	<line class="st1" x1="47.2" y1="24.2" x2="37.9" y2="30.4"/>
	<line class="st0" x1="48.1" y1="25.8" x2="47.2" y2="24.2"/>
	<line class="st1" x1="38.2" y1="31" x2="48.1" y2="25.8"/>
	<line class="st0" x1="31.7" y1="42.1" x2="30.2" y2="42"/>
	<line class="st1" x1="31.7" y1="53.4" x2="31.7" y2="42.1"/>
	<line class="st0" x1="27.9" y1="53" x2="31.7" y2="53.4"/>
	<line class="st0" x1="24.4" y1="51.9" x2="27.9" y2="53"/>
	<line class="st0" x1="23" y1="51.1" x2="24.4" y2="51.9"/>
	<line class="st1" x1="28.1" y1="41.2" x2="23" y2="51.1"/>
	<line class="st0" x1="28.8" y1="41.5" x2="28.1" y2="41.2"/>
	<line class="st0" x1="30.2" y1="42" x2="28.8" y2="41.5"/>
	<line class="st0" x1="33.2" y1="42" x2="32.3" y2="42"/>
	<line class="st1" x1="35.4" y1="53" x2="33.2" y2="42"/>
	<line class="st0" x1="33.6" y1="53.2" x2="35.4" y2="53"/>
	<line class="st1" x1="32.3" y1="42" x2="33.6" y2="53.2"/>
	<line class="st0" x1="33.9" y1="41.7" x2="33.2" y2="42"/>
	<line class="st1" x1="37.2" y1="52.4" x2="33.9" y2="41.7"/>
	<line class="st0" x1="35.4" y1="53" x2="37.2" y2="52.4"/>
	<line class="st1" x1="33.2" y1="42" x2="35.4" y2="53"/>
	<line class="st0" x1="24.6" y1="32.4" x2="24.8" y2="31.7"/>
	<line class="st1" x1="13.9" y1="29" x2="24.6" y2="32.4"/>
	<line class="st0" x1="14.4" y1="27.3" x2="13.9" y2="29"/>
	<line class="st1" x1="24.8" y1="31.7" x2="14.4" y2="27.3"/>
	<line class="st0" x1="32.3" y1="42" x2="31.7" y2="42.1"/>
	<line class="st1" x1="33.6" y1="53.2" x2="32.3" y2="42"/>
	<line class="st0" x1="31.7" y1="53.4" x2="33.6" y2="53.2"/>
	<line class="st1" x1="31.7" y1="42.1" x2="31.7" y2="53.4"/>
	<line class="st0" x1="34.6" y1="41.5" x2="33.9" y2="41.7"/>
	<line class="st1" x1="39" y1="51.9" x2="34.6" y2="41.5"/>
	<line class="st0" x1="37.2" y1="52.4" x2="39" y2="51.9"/>
	<line class="st1" x1="33.9" y1="41.7" x2="37.2" y2="52.4"/>
	<line class="st1" x1="48.9" y1="41.9" x2="38.6" y2="37.5"/>
	<line class="st0" x1="48" y1="43.6" x2="48.9" y2="41.9"/>
	<line class="st1" x1="38.3" y1="38.1" x2="48" y2="43.6"/>
	<line class="st0" x1="38.6" y1="37.5" x2="38.3" y2="38.1"/>
	<line class="st0" x1="38.3" y1="38.1" x2="37.9" y2="38.8"/>
	<line class="st1" x1="48" y1="43.6" x2="38.3" y2="38.1"/>
	<line class="st0" x1="47.2" y1="45.1" x2="48" y2="43.6"/>
	<line class="st1" x1="37.9" y1="38.8" x2="47.2" y2="45.1"/>
	<line class="st0" x1="35.2" y1="41.2" x2="34.6" y2="41.5"/>
	<line class="st1" x1="40.5" y1="51.1" x2="35.2" y2="41.2"/>
	<line class="st0" x1="39" y1="51.9" x2="40.5" y2="51.1"/>
	<line class="st1" x1="34.6" y1="41.5" x2="39" y2="51.9"/>
	<line class="st0" x1="37.4" y1="39.4" x2="37" y2="39.9"/>
	<line class="st1" x1="46.2" y1="46.4" x2="37.4" y2="39.4"/>
	<line class="st0" x1="44.9" y1="47.9" x2="46.2" y2="46.4"/>
	<line class="st0" x1="42.1" y1="50.2" x2="44.9" y2="47.9"/>
	<line class="st0" x1="40.5" y1="51.1" x2="42.1" y2="50.2"/>
	<line class="st1" x1="35.2" y1="41.2" x2="40.5" y2="51.1"/>
	<line class="st0" x1="35.9" y1="40.8" x2="35.2" y2="41.2"/>
	<line class="st0" x1="37" y1="39.9" x2="35.9" y2="40.8"/>
	<line class="st0" x1="37.9" y1="38.8" x2="37.4" y2="39.4"/>
	<line class="st1" x1="47.2" y1="45.1" x2="37.9" y2="38.8"/>
	<line class="st0" x1="46.2" y1="46.4" x2="47.2" y2="45.1"/>
	<line class="st1" x1="37.4" y1="39.4" x2="46.2" y2="46.4"/>
	<line class="st0" x1="25.1" y1="38.1" x2="24.8" y2="37.5"/>
	<line class="st1" x1="15.4" y1="43.7" x2="25.1" y2="38.1"/>
	<line class="st0" x1="14.4" y1="41.9" x2="15.4" y2="43.7"/>
	<line class="st1" x1="24.8" y1="37.5" x2="14.4" y2="41.9"/>
	<line class="st0" x1="24.8" y1="37.5" x2="24.3" y2="36.1"/>
	<line class="st1" x1="14.4" y1="41.9" x2="24.8" y2="37.5"/>
	<line class="st0" x1="13.3" y1="38.4" x2="14.4" y2="41.9"/>
	<line class="st0" x1="12.9" y1="34.6" x2="13.3" y2="38.4"/>
	<line class="st0" x1="13.3" y1="30.9" x2="12.9" y2="34.6"/>
	<line class="st1" x1="24.3" y1="33.1" x2="13.3" y2="30.9"/>
	<line class="st0" x1="24.2" y1="34.6" x2="24.3" y2="33.1"/>
	<line class="st0" x1="24.3" y1="36.1" x2="24.2" y2="34.6"/>
	<line class="st0" x1="24.3" y1="33.1" x2="24.6" y2="32.4"/>
	<line class="st1" x1="13.3" y1="30.9" x2="24.3" y2="33.1"/>
	<line class="st0" x1="13.9" y1="29" x2="13.3" y2="30.9"/>
	<line class="st1" x1="24.6" y1="32.4" x2="13.9" y2="29"/>
	<line class="st0" x1="25.5" y1="38.8" x2="25.1" y2="38.1"/>
	<line class="st1" x1="16.1" y1="45.1" x2="25.5" y2="38.8"/>
	<line class="st0" x1="15.4" y1="43.7" x2="16.1" y2="45.1"/>
	<line class="st1" x1="25.1" y1="38.1" x2="15.4" y2="43.7"/>
	<line class="st0" x1="26.8" y1="40.3" x2="26.4" y2="39.9"/>
	<line class="st1" x1="20" y1="49.1" x2="26.8" y2="40.3"/>
	<line class="st0" x1="18.4" y1="47.9" x2="20" y2="49.1"/>
	<line class="st1" x1="26.4" y1="39.9" x2="18.4" y2="47.9"/>
	<line class="st0" x1="28.1" y1="41.2" x2="27.5" y2="40.8"/>
	<line class="st1" x1="23" y1="51.1" x2="28.1" y2="41.2"/>
	<line class="st0" x1="21.2" y1="50.2" x2="23" y2="51.1"/>
	<line class="st1" x1="27.5" y1="40.8" x2="21.2" y2="50.2"/>
	<line class="st0" x1="27.5" y1="40.8" x2="26.8" y2="40.3"/>
	<line class="st1" x1="21.2" y1="50.2" x2="27.5" y2="40.8"/>
	<line class="st0" x1="20" y1="49.1" x2="21.2" y2="50.2"/>
	<line class="st1" x1="26.8" y1="40.3" x2="20" y2="49.1"/>
	<line class="st0" x1="25.9" y1="39.4" x2="25.5" y2="38.8"/>
	<line class="st1" x1="17.3" y1="46.6" x2="25.9" y2="39.4"/>
	<line class="st0" x1="16.1" y1="45.1" x2="17.3" y2="46.6"/>
	<line class="st1" x1="25.5" y1="38.8" x2="16.1" y2="45.1"/>
	<line class="st0" x1="26.4" y1="39.9" x2="25.9" y2="39.4"/>
	<line class="st1" x1="18.4" y1="47.9" x2="26.4" y2="39.9"/>
	<line class="st0" x1="17.3" y1="46.6" x2="18.4" y2="47.9"/>
	<line class="st1" x1="25.9" y1="39.4" x2="17.3" y2="46.6"/>
	<line class="st0" x1="37.2" y1="9.9" x2="35.9" y2="9"/>
	<line class="st2" x1="20.2" y1="12.4" x2="37.2" y2="9.9"/>
	<line class="st0" x1="21.1" y1="11.2" x2="20.2" y2="12.4"/>
	<line class="st0" x1="21.9" y1="10.5" x2="21.1" y2="11.2"/>
	<line class="st2" x1="34.7" y1="8.6" x2="21.9" y2="10.5"/>
	<line class="st0" x1="35.9" y1="9" x2="34.7" y2="8.6"/>
	<line class="st0" x1="34.7" y1="8.6" x2="32.6" y2="8"/>
	<line class="st2" x1="21.9" y1="10.5" x2="34.7" y2="8.6"/>
	<line class="st0" x1="24.8" y1="8.8" x2="21.9" y2="10.5"/>
	<line class="st0" x1="29.3" y1="8" x2="24.8" y2="8.8"/>
	<line class="st0" x1="32.6" y1="8" x2="29.3" y2="8"/>
	<line class="st0" x1="28" y1="17" x2="31.7" y2="16.3"/>
	<line class="st0" x1="24.4" y1="17.4" x2="28" y2="17"/>
	<line class="st0" x1="18.9" y1="17.8" x2="24.4" y2="17.4"/>
	<line class="st0" x1="18.5" y1="16.6" x2="18.9" y2="17.8"/>
	<line class="st2" x1="39.7" y1="12.6" x2="18.5" y2="16.6"/>
	<line class="st0" x1="40.4" y1="13.4" x2="39.7" y2="12.6"/>
	<line class="st0" x1="39.3" y1="14.4" x2="40.4" y2="13.4"/>
	<line class="st0" x1="31.7" y1="16.3" x2="39.3" y2="14.4"/>
	<line class="st0" x1="38.9" y1="11.7" x2="38.1" y2="10.6"/>
	<line class="st2" x1="18.8" y1="14.6" x2="38.9" y2="11.7"/>
	<line class="st0" x1="19.2" y1="13.4" x2="18.8" y2="14.6"/>
	<line class="st0" x1="20.2" y1="12.4" x2="19.2" y2="13.4"/>
	<line class="st2" x1="37.2" y1="9.9" x2="20.2" y2="12.4"/>
	<line class="st0" x1="38.1" y1="10.6" x2="37.2" y2="9.9"/>
	<line class="st0" x1="39.7" y1="12.6" x2="38.9" y2="11.7"/>
	<line class="st2" x1="18.5" y1="16.6" x2="39.7" y2="12.6"/>
	<line class="st0" x1="18.8" y1="14.6" x2="18.5" y2="16.6"/>
	<line class="st2" x1="38.9" y1="11.7" x2="18.8" y2="14.6"/>
	<line class="st0" x1="5.3" y1="32.7" x2="4.3" y2="34.6"/>
	<line class="st2" x1="6.3" y1="41.9" x2="5.3" y2="32.7"/>
	<line class="st0" x1="5" y1="39.4" x2="6.3" y2="41.9"/>
	<line class="st0" x1="4.3" y1="34.6" x2="5" y2="39.4"/>
	<line class="st0" x1="7.4" y1="30.4" x2="6.2" y2="30.9"/>
	<line class="st2" x1="8.3" y1="43.1" x2="7.4" y2="30.4"/>
	<line class="st0" x1="6.6" y1="42.4" x2="8.3" y2="43.1"/>
	<line class="st0" x1="6.3" y1="41.9" x2="6.6" y2="42.4"/>
	<line class="st2" x1="5.3" y1="32.7" x2="6.3" y2="41.9"/>
	<line class="st0" x1="6.2" y1="30.9" x2="5.3" y2="32.7"/>
	<line class="st0" x1="9.1" y1="29.7" x2="7.4" y2="30.4"/>
	<line class="st2" x1="10" y1="43.7" x2="9.1" y2="29.7"/>
	<line class="st0" x1="9.6" y1="43.6" x2="10" y2="43.7"/>
	<line class="st0" x1="8.3" y1="43.1" x2="9.6" y2="43.6"/>
	<line class="st2" x1="7.4" y1="30.4" x2="8.3" y2="43.1"/>
	<line class="st0" x1="11" y1="29.1" x2="9.9" y2="29.3"/>
	<line class="st2" x1="11.8" y1="43.9" x2="11" y2="29.1"/>
	<line class="st0" x1="10" y1="43.7" x2="11.8" y2="43.9"/>
	<line class="st2" x1="9.1" y1="29.7" x2="10" y2="43.7"/>
	<line class="st0" x1="9.9" y1="29.3" x2="9.1" y2="29.7"/>
	<line class="st0" x1="13.3" y1="44" x2="13.3" y2="38.4"/>
	<line class="st0" x1="11.8" y1="43.9" x2="13.3" y2="44"/>
	<line class="st2" x1="11" y1="29.1" x2="11.8" y2="43.9"/>
	<line class="st0" x1="12.2" y1="28.9" x2="11" y2="29.1"/>
	<line class="st0" x1="12.9" y1="34.6" x2="12.2" y2="28.9"/>
	<line class="st0" x1="13.3" y1="38.4" x2="12.9" y2="34.6"/>
	<line class="st0" x1="18.8" y1="54.4" x2="18.9" y2="55.3"/>
	<line class="st2" x1="31.8" y1="58.8" x2="18.8" y2="54.4"/>
	<line class="st0" x1="31.3" y1="59.2" x2="31.8" y2="58.8"/>
	<line class="st0" x1="29.9" y1="60" x2="31.3" y2="59.2"/>
	<line class="st2" x1="19.4" y1="56.7" x2="29.9" y2="60"/>
	<line class="st0" x1="18.9" y1="55.3" x2="19.4" y2="56.7"/>
	<line class="st0" x1="19.4" y1="56.7" x2="19.7" y2="57.6"/>
	<line class="st2" x1="29.9" y1="60" x2="19.4" y2="56.7"/>
	<line class="st0" x1="29" y1="60.5" x2="29.9" y2="60"/>
	<line class="st0" x1="24.8" y1="60.5" x2="29" y2="60.5"/>
	<line class="st0" x1="21.9" y1="59.7" x2="24.8" y2="60.5"/>
	<line class="st0" x1="19.7" y1="57.6" x2="21.9" y2="59.7"/>
	<line class="st0" x1="33.5" y1="57.2" x2="34.3" y2="55.6"/>
	<line class="st2" x1="19.1" y1="52.1" x2="33.5" y2="57.2"/>
	<line class="st0" x1="19.3" y1="51.1" x2="19.1" y2="52.1"/>
	<line class="st0" x1="24.4" y1="51.9" x2="19.3" y2="51.1"/>
	<line class="st0" x1="27.9" y1="53" x2="24.4" y2="51.9"/>
	<line class="st0" x1="34.3" y1="55.6" x2="27.9" y2="53"/>
	<line class="st0" x1="33.2" y1="57.7" x2="33.5" y2="57.2"/>
	<line class="st0" x1="31.8" y1="58.8" x2="33.2" y2="57.7"/>
	<line class="st2" x1="18.8" y1="54.4" x2="31.8" y2="58.8"/>
	<line class="st0" x1="18.7" y1="53.5" x2="18.8" y2="54.4"/>
	<line class="st0" x1="19.1" y1="52.1" x2="18.7" y2="53.5"/>
	<line class="st2" x1="33.5" y1="57.2" x2="19.1" y2="52.1"/>
	<line class="st0" x1="50.4" y1="48.5" x2="49.8" y2="46.9"/>
	<line class="st0" x1="50.5" y1="48.9" x2="50.4" y2="48.5"/>
	<line class="st2" x1="42.1" y1="55.5" x2="50.5" y2="48.9"/>
	<line class="st0" x1="41" y1="55.2" x2="42.1" y2="55.5"/>
	<line class="st0" x1="40.1" y1="54.5" x2="41" y2="55.2"/>
	<line class="st2" x1="49.8" y1="46.9" x2="40.1" y2="54.5"/>
	<line class="st0" x1="44.8" y1="56" x2="46.7" y2="56"/>
	<line class="st2" x1="50.6" y1="51.5" x2="44.8" y2="56"/>
	<line class="st0" x1="50.4" y1="53.5" x2="50.6" y2="51.5"/>
	<line class="st0" x1="48.9" y1="54.9" x2="50.4" y2="53.5"/>
	<line class="st0" x1="46.7" y1="56" x2="48.9" y2="54.9"/>
	<line class="st0" x1="49.8" y1="46.9" x2="49.4" y2="46"/>
	<line class="st2" x1="40.1" y1="54.5" x2="49.8" y2="46.9"/>
	<line class="st0" x1="39.1" y1="53.7" x2="40.1" y2="54.5"/>
	<line class="st0" x1="42.1" y1="50.2" x2="39.1" y2="53.7"/>
	<line class="st0" x1="44.9" y1="47.9" x2="42.1" y2="50.2"/>
	<line class="st0" x1="49.4" y1="46" x2="44.9" y2="47.9"/>
	<line class="st0" x1="42.1" y1="55.5" x2="44" y2="56"/>
	<line class="st2" x1="50.5" y1="48.9" x2="42.1" y2="55.5"/>
	<line class="st0" x1="50.7" y1="51.1" x2="50.5" y2="48.9"/>
	<line class="st0" x1="50.6" y1="51.5" x2="50.7" y2="51.1"/>
	<line class="st2" x1="44.8" y1="56" x2="50.6" y2="51.5"/>
	<line class="st0" x1="44" y1="56" x2="44.8" y2="56"/>
	<line class="st0" x1="57.3" y1="36.1" x2="56" y2="33.7"/>
	<line class="st0" x1="57" y1="38.8" x2="57.3" y2="36.1"/>
	<line class="st0" x1="55.6" y1="40.6" x2="57" y2="38.8"/>
	<line class="st0" x1="54.3" y1="41.6" x2="55.6" y2="40.6"/>
	<line class="st2" x1="55" y1="32.9" x2="54.3" y2="41.6"/>
	<line class="st0" x1="56" y1="33.7" x2="55" y2="32.9"/>
	<line class="st0" x1="55" y1="32.9" x2="54.3" y2="32.3"/>
	<line class="st2" x1="54.3" y1="41.6" x2="55" y2="32.9"/>
	<line class="st0" x1="53.3" y1="42.3" x2="54.3" y2="41.6"/>
	<line class="st0" x1="51.7" y1="42.7" x2="53.3" y2="42.3"/>
	<line class="st2" x1="52.6" y1="31.6" x2="51.7" y2="42.7"/>
	<line class="st0" x1="54.3" y1="32.3" x2="52.6" y2="31.6"/>
	<line class="st0" x1="51.8" y1="31.2" x2="50.4" y2="34.6"/>
	<line class="st0" x1="52.6" y1="31.6" x2="51.8" y2="31.2"/>
	<line class="st2" x1="51.7" y1="42.7" x2="52.6" y2="31.6"/>
	<line class="st0" x1="50" y1="43" x2="51.7" y2="42.7"/>
	<line class="st0" x1="50" y1="38.4" x2="50" y2="43"/>
	<line class="st0" x1="50.4" y1="34.6" x2="50" y2="38.4"/>
	<line class="st0" x1="52" y1="23" x2="51.6" y2="20.7"/>
	<line class="st0" x1="46.2" y1="17.3" x2="52" y2="23"/>
	<line class="st0" x1="48.4" y1="17.5" x2="46.2" y2="17.3"/>
	<line class="st0" x1="50.4" y1="18.7" x2="48.4" y2="17.5"/>
	<line class="st0" x1="51.6" y1="20.7" x2="50.4" y2="18.7"/>
	<line class="st0" x1="45.5" y1="17.2" x2="43.6" y2="17.8"/>
	<line class="st0" x1="46.2" y1="17.3" x2="45.5" y2="17.2"/>
	<line class="st2" x1="52" y1="23" x2="46.2" y2="17.3"/>
	<line class="st0" x1="52.1" y1="24" x2="52" y2="23"/>
	<line class="st0" x1="51.2" y1="25.7" x2="52.1" y2="24"/>
	<line class="st0" x1="43.6" y1="17.8" x2="51.2" y2="25.7"/>
	<line class="st0" x1="43.6" y1="17.8" x2="43" y2="18"/>
	<line class="st2" x1="51.2" y1="25.7" x2="43.6" y2="17.8"/>
	<line class="st0" x1="50.8" y1="26.5" x2="51.2" y2="25.7"/>
	<line class="st0" x1="47.2" y1="24.2" x2="50.8" y2="26.5"/>
	<line class="st0" x1="44.9" y1="21.4" x2="47.2" y2="24.2"/>
	<line class="st0" x1="43" y1="18" x2="44.9" y2="21.4"/>
</g>
</svg>
